# Tiled2Unity generated file. Do not modify by hand.
# Wavefront file for 'level3_mesh_0001.obj'

# Vertices (Count = 280)
v -2816 -272 0
v -2832 -272 0
v -2832 -256 0
v -2816 -256 0
v -2800 -272 0
v -2816 -272 0
v -2816 -256 0
v -2800 -256 0
v -2784 -272 0
v -2800 -272 0
v -2800 -256 0
v -2784 -256 0
v -2768 -272 0
v -2784 -272 0
v -2784 -256 0
v -2768 -256 0
v -2752 -272 0
v -2768 -272 0
v -2768 -256 0
v -2752 -256 0
v -2736 -272 0
v -2752 -272 0
v -2752 -256 0
v -2736 -256 0
v -2720 -272 0
v -2736 -272 0
v -2736 -256 0
v -2720 -256 0
v -2704 -272 0
v -2720 -272 0
v -2720 -256 0
v -2704 -256 0
v -2704 -256 0
v -2720 -256 0
v -2720 -240 0
v -2704 -240 0
v -2704 -240 0
v -2720 -240 0
v -2720 -224 0
v -2704 -224 0
v -2368 -240 0
v -2384 -240 0
v -2384 -224 0
v -2368 -224 0
v -2352 -240 0
v -2368 -240 0
v -2368 -224 0
v -2352 -224 0
v -2336 -240 0
v -2352 -240 0
v -2352 -224 0
v -2336 -224 0
v -2320 -240 0
v -2336 -240 0
v -2336 -224 0
v -2320 -224 0
v -2304 -240 0
v -2320 -240 0
v -2320 -224 0
v -2304 -224 0
v -2288 -240 0
v -2304 -240 0
v -2304 -224 0
v -2288 -224 0
v -2272 -240 0
v -2288 -240 0
v -2288 -224 0
v -2272 -224 0
v -2256 -240 0
v -2272 -240 0
v -2272 -224 0
v -2256 -224 0
v -2240 -240 0
v -2256 -240 0
v -2256 -224 0
v -2240 -224 0
v -2784 -224 0
v -2800 -224 0
v -2800 -208 0
v -2784 -208 0
v -2768 -224 0
v -2784 -224 0
v -2784 -208 0
v -2768 -208 0
v -2752 -224 0
v -2768 -224 0
v -2768 -208 0
v -2752 -208 0
v -2704 -224 0
v -2720 -224 0
v -2720 -208 0
v -2704 -208 0
v -2448 -224 0
v -2464 -224 0
v -2464 -208 0
v -2448 -208 0
v -2432 -224 0
v -2448 -224 0
v -2448 -208 0
v -2432 -208 0
v -2416 -224 0
v -2432 -224 0
v -2432 -208 0
v -2416 -208 0
v -2400 -224 0
v -2416 -224 0
v -2416 -208 0
v -2400 -208 0
v -2384 -224 0
v -2400 -224 0
v -2400 -208 0
v -2384 -208 0
v -2368 -224 0
v -2384 -224 0
v -2384 -208 0
v -2368 -208 0
v -2352 -224 0
v -2368 -224 0
v -2368 -208 0
v -2352 -208 0
v -2304 -224 0
v -2320 -224 0
v -2320 -208 0
v -2304 -208 0
v -2240 -224 0
v -2256 -224 0
v -2256 -208 0
v -2240 -208 0
v -2224 -224 0
v -2240 -224 0
v -2240 -208 0
v -2224 -208 0
v -2208 -224 0
v -2224 -224 0
v -2224 -208 0
v -2208 -208 0
v -2192 -224 0
v -2208 -224 0
v -2208 -208 0
v -2192 -208 0
v -2176 -224 0
v -2192 -224 0
v -2192 -208 0
v -2176 -208 0
v -2160 -224 0
v -2176 -224 0
v -2176 -208 0
v -2160 -208 0
v -2144 -224 0
v -2160 -224 0
v -2160 -208 0
v -2144 -208 0
v -2128 -224 0
v -2144 -224 0
v -2144 -208 0
v -2128 -208 0
v -2704 -208 0
v -2720 -208 0
v -2720 -192 0
v -2704 -192 0
v -2688 -208 0
v -2704 -208 0
v -2704 -192 0
v -2688 -192 0
v -2672 -208 0
v -2688 -208 0
v -2688 -192 0
v -2672 -192 0
v -2656 -208 0
v -2672 -208 0
v -2672 -192 0
v -2656 -192 0
v -2496 -208 0
v -2512 -208 0
v -2512 -192 0
v -2496 -192 0
v -2480 -208 0
v -2496 -208 0
v -2496 -192 0
v -2480 -192 0
v -2464 -208 0
v -2480 -208 0
v -2480 -192 0
v -2464 -192 0
v -2432 -208 0
v -2448 -208 0
v -2448 -192 0
v -2432 -192 0
v -2704 -192 0
v -2720 -192 0
v -2720 -176 0
v -2704 -176 0
v -2688 -192 0
v -2704 -192 0
v -2704 -176 0
v -2688 -176 0
v -2672 -192 0
v -2688 -192 0
v -2688 -176 0
v -2672 -176 0
v -2656 -192 0
v -2672 -192 0
v -2672 -176 0
v -2656 -176 0
v -2608 -192 0
v -2624 -192 0
v -2624 -176 0
v -2608 -176 0
v -2496 -192 0
v -2512 -192 0
v -2512 -176 0
v -2496 -176 0
v -2608 -176 0
v -2624 -176 0
v -2624 -160 0
v -2608 -160 0
v -2592 -176 0
v -2608 -176 0
v -2608 -160 0
v -2592 -160 0
v -2576 -176 0
v -2592 -176 0
v -2592 -160 0
v -2576 -160 0
v -2544 -176 0
v -2560 -176 0
v -2560 -160 0
v -2544 -160 0
v -2528 -176 0
v -2544 -176 0
v -2544 -160 0
v -2528 -160 0
v -2512 -176 0
v -2528 -176 0
v -2528 -160 0
v -2512 -160 0
v -2384 -176 0
v -2400 -176 0
v -2400 -160 0
v -2384 -160 0
v -2368 -176 0
v -2384 -176 0
v -2384 -160 0
v -2368 -160 0
v -2576 -160 0
v -2592 -160 0
v -2592 -144 0
v -2576 -144 0
v -2560 -160 0
v -2576 -160 0
v -2576 -144 0
v -2560 -144 0
v -2544 -160 0
v -2560 -160 0
v -2560 -144 0
v -2544 -144 0
v -2352 -160 0
v -2368 -160 0
v -2368 -144 0
v -2352 -144 0
v -2336 -160 0
v -2352 -160 0
v -2352 -144 0
v -2336 -144 0
v -2320 -160 0
v -2336 -160 0
v -2336 -144 0
v -2320 -144 0
v -2304 -160 0
v -2320 -160 0
v -2320 -144 0
v -2304 -144 0
v -2288 -160 0
v -2304 -160 0
v -2304 -144 0
v -2288 -144 0
v -2272 -160 0
v -2288 -160 0
v -2288 -144 0
v -2272 -144 0

# Texture cooridinates (Count = 6)
vt 0 0.625
vt 0.125 0.625
vt 0.125 0.75
vt 0 0.75
vt 0.25 0.625
vt 0.25 0.75

# Normal
vn 0 0 -1

# Mesh description
g level3_mesh_0001

# Faces
f 1/1/1 2/2/1 3/3/1 4/4/1
f 5/1/1 6/2/1 7/3/1 8/4/1
f 9/1/1 10/2/1 11/3/1 12/4/1
f 13/1/1 14/2/1 15/3/1 16/4/1
f 17/1/1 18/2/1 19/3/1 20/4/1
f 21/1/1 22/2/1 23/3/1 24/4/1
f 25/1/1 26/2/1 27/3/1 28/4/1
f 29/1/1 30/2/1 31/3/1 32/4/1
f 33/1/1 34/2/1 35/3/1 36/4/1
f 37/1/1 38/2/1 39/3/1 40/4/1
f 41/1/1 42/2/1 43/3/1 44/4/1
f 45/1/1 46/2/1 47/3/1 48/4/1
f 49/1/1 50/2/1 51/3/1 52/4/1
f 53/1/1 54/2/1 55/3/1 56/4/1
f 57/1/1 58/2/1 59/3/1 60/4/1
f 61/1/1 62/2/1 63/3/1 64/4/1
f 65/1/1 66/2/1 67/3/1 68/4/1
f 69/1/1 70/2/1 71/3/1 72/4/1
f 73/1/1 74/2/1 75/3/1 76/4/1
f 77/1/1 78/2/1 79/3/1 80/4/1
f 81/1/1 82/2/1 83/3/1 84/4/1
f 85/1/1 86/2/1 87/3/1 88/4/1
f 89/1/1 90/2/1 91/3/1 92/4/1
f 93/1/1 94/2/1 95/3/1 96/4/1
f 97/1/1 98/2/1 99/3/1 100/4/1
f 101/1/1 102/2/1 103/3/1 104/4/1
f 105/1/1 106/2/1 107/3/1 108/4/1
f 109/1/1 110/2/1 111/3/1 112/4/1
f 113/1/1 114/2/1 115/3/1 116/4/1
f 117/2/1 118/5/1 119/6/1 120/3/1
f 121/2/1 122/5/1 123/6/1 124/3/1
f 125/1/1 126/2/1 127/3/1 128/4/1
f 129/1/1 130/2/1 131/3/1 132/4/1
f 133/1/1 134/2/1 135/3/1 136/4/1
f 137/1/1 138/2/1 139/3/1 140/4/1
f 141/1/1 142/2/1 143/3/1 144/4/1
f 145/1/1 146/2/1 147/3/1 148/4/1
f 149/1/1 150/2/1 151/3/1 152/4/1
f 153/1/1 154/2/1 155/3/1 156/4/1
f 157/1/1 158/2/1 159/3/1 160/4/1
f 161/1/1 162/2/1 163/3/1 164/4/1
f 165/1/1 166/2/1 167/3/1 168/4/1
f 169/1/1 170/2/1 171/3/1 172/4/1
f 173/1/1 174/2/1 175/3/1 176/4/1
f 177/1/1 178/2/1 179/3/1 180/4/1
f 181/1/1 182/2/1 183/3/1 184/4/1
f 185/2/1 186/5/1 187/6/1 188/3/1
f 189/2/1 190/5/1 191/6/1 192/3/1
f 193/2/1 194/5/1 195/6/1 196/3/1
f 197/2/1 198/5/1 199/6/1 200/3/1
f 201/2/1 202/5/1 203/6/1 204/3/1
f 205/1/1 206/2/1 207/3/1 208/4/1
f 209/1/1 210/2/1 211/3/1 212/4/1
f 213/1/1 214/2/1 215/3/1 216/4/1
f 217/1/1 218/2/1 219/3/1 220/4/1
f 221/1/1 222/2/1 223/3/1 224/4/1
f 225/1/1 226/2/1 227/3/1 228/4/1
f 229/1/1 230/2/1 231/3/1 232/4/1
f 233/1/1 234/2/1 235/3/1 236/4/1
f 237/1/1 238/2/1 239/3/1 240/4/1
f 241/1/1 242/2/1 243/3/1 244/4/1
f 245/1/1 246/2/1 247/3/1 248/4/1
f 249/1/1 250/2/1 251/3/1 252/4/1
f 253/1/1 254/2/1 255/3/1 256/4/1
f 257/1/1 258/2/1 259/3/1 260/4/1
f 261/1/1 262/2/1 263/3/1 264/4/1
f 265/1/1 266/2/1 267/3/1 268/4/1
f 269/1/1 270/2/1 271/3/1 272/4/1
f 273/1/1 274/2/1 275/3/1 276/4/1
f 277/1/1 278/2/1 279/3/1 280/4/1

